{
	"asset":{
		"version":"2.0",
		"generator":"Created using the official Cinema 4D glTF Exporter 1.000x284978"
	},
	"scenes":[{
		"nodes":[0,
		1,
		2]
	}],
	"nodes":[{
		"name":"立方体.2",
		"mesh":0,
		"translation":[32.55750274658203,
		279.9112854003906,
		59.565738677978519],
		"rotation":[0.0,
		0.0,
		0.0,
		-1.0],
		"scale":[1.0,
		1.0,
		1.0]
	},
	{
		"name":"立方体.1",
		"mesh":1,
		"translation":[51.04292678833008,
		146.37608337402345,
		0.0],
		"rotation":[0.0,
		0.0,
		0.0,
		-1.0],
		"scale":[1.0,
		1.0,
		1.0]
	},
	{
		"name":"立方体",
		"mesh":2,
		"translation":[-75.26180267333985,
		146.37608337402345,
		0.0],
		"rotation":[0.0,
		0.0,
		0.0,
		-1.0],
		"scale":[1.0,
		1.0,
		1.0]
	}],
	"meshes":[{
		"name":"立方体.2",
		"primitives":[{
			"attributes":{
				"POSITION":1,
				"TEXCOORD_0":2
			},
			"indices":0
		}]
	},
	{
		"name":"立方体.1",
		"primitives":[{
			"attributes":{
				"POSITION":6,
				"TEXCOORD_0":7
			},
			"indices":5,
			"material":0
		}]
	},
	{
		"name":"立方体",
		"primitives":[{
			"attributes":{
				"POSITION":9,
				"TEXCOORD_0":10
			},
			"indices":8,
			"material":1
		}]
	}],
	"accessors":[{
		"bufferView":0,
		"type":"SCALAR",
		"componentType":5123,
		"count":36,
		"min":[0],
		"byteOffset":0,
		"max":[19]
	},
	{
		"bufferView":1,
		"type":"VEC3",
		"componentType":5126,
		"count":20,
		"min":[-75.89928436279297,
		-30.567495346069337,
		-26.176280975341798],
		"byteOffset":0,
		"max":[75.89928436279297,
		30.567495346069337,
		26.176280975341798]
	},
	{
		"bufferView":1,
		"type":"VEC2",
		"componentType":5126,
		"count":20,
		"min":[0.0,
		0.0],
		"byteOffset":12,
		"max":[1.0,
		1.0]
	},
	{
		"bufferView":2,
		"type":"SCALAR",
		"componentType":5126,
		"count":31,
		"min":[0.0],
		"byteOffset":0,
		"max":[1.0]
	},
	{
		"bufferView":2,
		"type":"VEC3",
		"componentType":5126,
		"count":31,
		"min":[32.55750274658203,
		279.9112854003906,
		59.565738677978519],
		"byteOffset":124,
		"max":[32.55750274658203,
		317.7330322265625,
		59.565738677978519]
	},
	{
		"bufferView":3,
		"type":"SCALAR",
		"componentType":5123,
		"count":36,
		"min":[0],
		"byteOffset":0,
		"max":[19]
	},
	{
		"bufferView":4,
		"type":"VEC3",
		"componentType":5126,
		"count":20,
		"min":[-100.0,
		-100.0,
		-100.0],
		"byteOffset":0,
		"max":[100.0,
		100.0,
		100.0]
	},
	{
		"bufferView":4,
		"type":"VEC2",
		"componentType":5126,
		"count":20,
		"min":[0.0,
		0.0],
		"byteOffset":12,
		"max":[1.0,
		1.0]
	},
	{
		"bufferView":5,
		"type":"SCALAR",
		"componentType":5123,
		"count":36,
		"min":[0],
		"byteOffset":0,
		"max":[19]
	},
	{
		"bufferView":6,
		"type":"VEC3",
		"componentType":5126,
		"count":20,
		"min":[-23.729801177978517,
		-100.0,
		-100.0],
		"byteOffset":0,
		"max":[23.729801177978517,
		100.0,
		100.0]
	},
	{
		"bufferView":6,
		"type":"VEC2",
		"componentType":5126,
		"count":20,
		"min":[0.0,
		0.0],
		"byteOffset":12,
		"max":[1.0,
		1.0]
	},
	{
		"bufferView":7,
		"type":"SCALAR",
		"componentType":5126,
		"count":31,
		"min":[0.0],
		"byteOffset":0,
		"max":[1.0]
	},
	{
		"bufferView":7,
		"type":"VEC3",
		"componentType":5126,
		"count":31,
		"min":[-151.1344451904297,
		146.37608337402345,
		-73.02964782714844],
		"byteOffset":124,
		"max":[-75.26180267333985,
		146.37608337402345,
		0.0]
	},
	{
		"bufferView":8,
		"type":"SCALAR",
		"componentType":5126,
		"count":31,
		"min":[0.0],
		"byteOffset":0,
		"max":[1.0]
	},
	{
		"bufferView":8,
		"type":"VEC4",
		"componentType":5126,
		"count":31,
		"min":[0.0,
		-0.699619472026825,
		0.0,
		-1.0],
		"byteOffset":124,
		"max":[0.0,
		0.0,
		0.0,
		0.9999967813491821]
	}],
	"buffers":[{
		"uri":"data:application/octet-stream;base64,",
		"byteLength":472
	},
	{
		"uri":"data:application/octet-stream;base64,",
		"byteLength":496
	},
	{
		"uri":"data:application/octet-stream;base64,",
		"byteLength":472
	},
	{
		"uri":"data:application/octet-stream;base64,",
		"byteLength":472
	},
	{
		"uri":"data:application/octet-stream;base64,",
		"byteLength":1116
	}],
	"bufferViews":[{
		"buffer":0,
		"byteOffset":0,
		"byteLength":72,
		"target":34963
	},
	{
		"buffer":0,
		"byteOffset":72,
		"byteLength":400,
		"target":34962,
		"byteStride":20
	},
	{
		"buffer":1,
		"byteOffset":0,
		"byteLength":496
	},
	{
		"buffer":2,
		"byteOffset":0,
		"byteLength":72,
		"target":34963
	},
	{
		"buffer":2,
		"byteOffset":72,
		"byteLength":400,
		"target":34962,
		"byteStride":20
	},
	{
		"buffer":3,
		"byteOffset":0,
		"byteLength":72,
		"target":34963
	},
	{
		"buffer":3,
		"byteOffset":72,
		"byteLength":400,
		"target":34962,
		"byteStride":20
	},
	{
		"buffer":4,
		"byteOffset":0,
		"byteLength":496
	},
	{
		"buffer":4,
		"byteOffset":496,
		"byteLength":620
	}],
	"materials":[{
		"pbrMetallicRoughness":{
			"baseColorFactor":[0.7179856115107913,
			0.7179856115107913,
			0.7179856115107913,
			1.0],
			"metallicFactor":0.0,
			"roughnessFactor":0.18
		},
		"emissiveFactor":[0.0,
		0.0,
		0.0],
		"alphaMode":"OPAQUE",
		"doubleSided":false,
		"name":"材质.1"
	},
	{
		"pbrMetallicRoughness":{
			"baseColorFactor":[0.7179856115107913,
			0.0,
			0.0,
			1.0],
			"metallicFactor":0.0,
			"roughnessFactor":0.18
		},
		"emissiveFactor":[0.0,
		0.0,
		0.0],
		"alphaMode":"OPAQUE",
		"doubleSided":false,
		"name":"材质"
	}],
	"animations":[{
		"samplers":[{
			"input":3,
			"interpolation":"LINEAR",
			"output":4
		},
		{
			"input":11,
			"interpolation":"LINEAR",
			"output":12
		},
		{
			"input":13,
			"interpolation":"LINEAR",
			"output":14
		}],
		"channels":[{
			"sampler":0,
			"target":{
				"node":0,
				"path":"translation"
			}
		},
		{
			"sampler":1,
			"target":{
				"node":2,
				"path":"translation"
			}
		},
		{
			"sampler":2,
			"target":{
				"node":2,
				"path":"rotation"
			}
		}]
	}]
}